<svg id="SvgjsSvg1001" width="360" height="360" xmlns="http://www.w3.org/2000/svg" version="1.1" xmlns:xlink="http://www.w3.org/1999/xlink" xmlns:svgjs="http://svgjs.com/svgjs"><defs id="SvgjsDefs1002"></defs><g id="SvgjsG1008"><svg xmlns="http://www.w3.org/2000/svg" xmlns:xlink="http://www.w3.org/1999/xlink" data-name="Layer 1" viewBox="0 0 509.84 457.75" width="360" height="360"><defs><linearGradient id="s" x1="52.13" x2="79.91" y1="192.47" y2="193.59" xlink:href="#a"></linearGradient><linearGradient id="d" x1="258.79" x2="318.26" y1="-530.62" y2="1113.5" gradientUnits="userSpaceOnUse"><stop offset="0" stop-opacity="0" stop-color="#000000" class="stopColor000000 svgShape"></stop><stop offset=".85" stop-opacity=".7" stop-color="#000000" class="stopColor000000 svgShape"></stop><stop offset=".97" stop-color="#000000" class="stopColor000000 svgShape"></stop></linearGradient><linearGradient id="e" x1="389.35" x2="452.79" y1="334.87" y2="334.87" xlink:href="#a"></linearGradient><linearGradient id="f" x1="389.35" x2="452.79" y1="382.2" y2="382.2" xlink:href="#a"></linearGradient><linearGradient id="g" x1="96.94" x2="160.39" y1="344.65" y2="344.65" xlink:href="#a"></linearGradient><linearGradient id="h" x1="117.38" x2="130.52" y1="317.89" y2="298.18" gradientUnits="userSpaceOnUse"><stop offset="0" stop-opacity="0" stop-color="#000000" class="stopColor000000 svgShape"></stop><stop offset=".61" stop-opacity=".61" stop-color="#000000" class="stopColor000000 svgShape"></stop><stop offset=".97" stop-color="#000000" class="stopColor000000 svgShape"></stop></linearGradient><linearGradient id="i" x1="272.15" x2="174.17" y1="326.88" y2="326.88" xlink:href="#a"></linearGradient><linearGradient id="j" x1="276.33" x2="176.09" y1="284.51" y2="349.83" xlink:href="#a"></linearGradient><linearGradient id="b" x1="213.15" x2="243.32" y1="147.2" y2="147.2" gradientUnits="userSpaceOnUse"><stop offset="0" stop-color="#ecc4d7" class="stopColorecc4d7 svgShape"></stop><stop offset=".42" stop-color="#efd4d1" class="stopColorefd4d1 svgShape"></stop><stop offset="1" stop-color="#f2eac9" class="stopColorf2eac9 svgShape"></stop></linearGradient><linearGradient id="k" x1="220.11" x2="132.97" y1="162.86" y2="240.19" xlink:href="#a"></linearGradient><linearGradient id="l" x1="252.78" x2="292.87" y1="191.72" y2="191.72" xlink:href="#b"></linearGradient><linearGradient id="m" x1="254.67" x2="254.67" y1="199" y2="268.82" xlink:href="#a"></linearGradient><linearGradient id="n" x1="189.6" x2="29.67" y1="198.97" y2="189.4" xlink:href="#a"></linearGradient><linearGradient id="o" x1="201.99" x2="134.42" y1="172.51" y2="203.48" xlink:href="#a"></linearGradient><linearGradient id="p" x1="141.3" x2="197.34" y1="84.15" y2="84.15" xlink:href="#b"></linearGradient><linearGradient id="q" x1="278.58" x2="319.51" y1="124.29" y2="124.29" xlink:href="#b"></linearGradient><linearGradient id="r" x1="76.21" x2="140.59" y1="172.95" y2="172.76" xlink:href="#a"></linearGradient><linearGradient id="a" x1="96.94" x2="160.39" y1="391.98" y2="391.98" gradientUnits="userSpaceOnUse"><stop offset="0" stop-opacity="0" stop-color="#000000" class="stopColor000000 svgShape"></stop><stop offset=".97" stop-color="#000000" class="stopColor000000 svgShape"></stop></linearGradient><linearGradient id="t" x1="74.25" x2="106.91" y1="155.28" y2="226.61" xlink:href="#a"></linearGradient><linearGradient id="u" x1="283.98" x2="296.37" y1="414.8" y2="397.34" xlink:href="#a"></linearGradient><linearGradient id="v" x1="358.73" x2="371.97" y1="426.89" y2="370.86" xlink:href="#a"></linearGradient><linearGradient id="w" x1="303.13" x2="356.54" y1="76.38" y2="76.38" xlink:href="#b"></linearGradient><linearGradient id="c" x1="302.5" x2="410.77" y1="212.09" y2="167.83" gradientUnits="userSpaceOnUse"><stop offset="0" stop-color="#ffffff" stop-opacity="0" class="stopColorfff svgShape"></stop><stop offset=".97" stop-color="#ffffff" class="stopColorfff svgShape"></stop></linearGradient><linearGradient id="x" x1="416.68" x2="333.34" y1="145.7" y2="253.82" xlink:href="#c"></linearGradient><linearGradient id="y" x1="165.89" x2="101.55" y1="112.56" y2="125.11" xlink:href="#a"></linearGradient><linearGradient id="z" x1="417.23" x2="389.29" y1="364.29" y2="304" xlink:href="#a"></linearGradient><linearGradient id="A" x1="381.84" x2="458.72" y1="304.85" y2="304.85" xlink:href="#a"></linearGradient><linearGradient id="B" x1="338.16" x2="397.29" y1="284.5" y2="363.33" xlink:href="#a"></linearGradient><linearGradient id="C" x1="355.66" x2="304.98" y1="179.4" y2="160.63" xlink:href="#c"></linearGradient><linearGradient id="D" x1="342.73" x2="257.7" y1="325.12" y2="233.9" xlink:href="#a"></linearGradient><linearGradient id="E" x1="61.92" x2="89.74" y1="177.53" y2="177.53" gradientUnits="userSpaceOnUse"><stop offset="0" stop-opacity="0" stop-color="#000000" class="stopColor000000 svgShape"></stop><stop offset=".03" stop-color="#ffffff" stop-opacity=".03" class="stopColorfff svgShape"></stop><stop offset=".97" stop-color="#ffffff" class="stopColorfff svgShape"></stop></linearGradient><linearGradient id="F" x1="363.83" x2="333.43" y1="96.71" y2="101.08" xlink:href="#c"></linearGradient><linearGradient id="G" x1="336.12" x2="352.24" y1="71.24" y2="75.82" xlink:href="#b"></linearGradient><linearGradient id="H" x1="161.79" x2="143.91" y1="73.18" y2="74.1" xlink:href="#b"></linearGradient></defs><path style="isolation:isolate" fill="#68e1fd" d="M106.43,77.28S-.73,105.67,0,173.59-7.15,430.66,112.05,433.31c84.76,1.89,326.51,63.74,364.38-2.65s32.91-205.49,32.91-205.49,11.32-119.81-73.66-135.23c-55-10-145.59,14.19-192.36-9.51S106.43,77.28,106.43,77.28Z" opacity=".25" transform="translate(0 -17.67)" class="color68e1fd svgShape"></path><path style="isolation:isolate" fill="#68e1fd" d="M86.75,270.73c5.62-10,9.18-21,13.52-31.57,16.75-40.87,47.42-77.67,88.66-93.46,16.65-6.37,34.44-9.17,52.17-11,25.69-2.63,51.83-3.27,77.17,1.74s50,16,68.33,34.12C414.32,198,424.87,238,431.28,276.45c5.14,30.8,8.1,63.69-4.69,92.18-13.5,30.06-42.66,50.41-73.19,62.82A239.4,239.4,0,0,1,190,437c-31.85-10.48-62-28.28-82.8-54.56s-31.4-61.62-23.77-94.27" opacity=".25" transform="translate(0 -17.67)" class="color68e1fd svgShape"></path><path fill="url(#d)" d="M292.39,125.1c-3.16-.68-7.21-1.44-9,1.26-1,1.56-.73,3.63-.11,5.38,4,11.42,19.12,17.16,20.64,29.18.89,7.05-3.37,13.61-5.22,20.47s.7,16.45,7.8,16.88c4.33.26,8.88-3.17,12.69-1.11a9.37,9.37,0,0,1,3.38,3.9,77.42,77.42,0,0,1,9.9,42.45,11.37,11.37,0,0,1-1.48,5.83c-1.32,2-3.61,3-5.75,4-28.67,14-44.27,45.18-55.6,75a20.84,20.84,0,0,0-10.73-17.93c-1.81-1-3.79-1.69-5.35-3-2.14-1.83-3.22-4.57-4.37-7.14a79,79,0,0,0-30.7-35c5.78-5.86,14.52-7.4,22.66-8.64l77.3-11.78c4.61-.7,10.64-3.36,9.5-7.88q-49.89-1.3-99.79-1.41c-2.16-4.39,1.34-9.78,5.79-11.82s9.55-1.86,14.41-2.53a41.5,41.5,0,0,0,28.91-18.48c-15.51-7.1-36,6-49.94-3.84a5.16,5.16,0,0,1-2.22-2.69c-.64-2.4,1.68-4.44,3.61-6A42.21,42.21,0,0,0,244,162.41c.32-2.84,0-6.36-2.63-7.54-2.42-1.1-5.12.59-7.24,2.19l-24.6,18.68c-6-9.08-12.09-18.3-15.37-28.68s.35-13.26,5.84-22.66c3.13-5.36,4-18.86,5.94-24.75,4.66-13.93-5.71-27.32-11.86-26.45-3,.44-11.47.78-13.38,3.18-19.06,24-27.41,13.07-33.72,43-5.38,25.5.45,108.32-4.93,133.83-2.13,10.08-4.26,20.21-4.81,30.49-.68,12.71,1.05,25.4,1.68,38.1,1.89,38.42-6.37,77.4,1,115.15,18.09-23.66,8.29-58.48,19.24-86.18,2.7-6.8,8.49-14,15.71-12.77,6.72,1.17,10,9.38,9,16.12s-5,12.6-7.65,18.89c-9.56,22.77,1,52,22.86,63.44,4.43-4.89,4.92-12.13,4.44-18.71s-1.65-13.34.29-19.64,8.38-11.88,14.72-10.08c9.5,15.42.79,38,12.23,52.07,10.24,12.56,29.69,10.34,45.54,7,4.66-5.64-1.19-13.78-6.9-18.35s-12.39-11.47-9.09-18a52.45,52.45,0,0,0,46.36,2.3,10.71,10.71,0,0,0,4.63-3.28c1.18-1.68,1.41-3.83,1.55-5.87,1.37-19.77-1.29-41.86,11.2-57.25A60.76,60.76,0,0,0,327.27,376c3.59,9.62,9.74,19.08,8.29,29.24-.8,5.62-3.69,12.12.05,16.39,2.91,3.33,8.09,3,12.47,2.35,4.64-.66,9.68-1.54,12.78-5,4.46-5,2.79-12.85.62-19.23-4.12-12.09-9.21-24.21-9.24-37s6.64-26.65,18.86-30.36c4.79,20.31.6,41.47-1.84,62.19s-2.71,43.17,8.61,60.69c6.42-.29,11.74-5.57,14.08-11.55s2.3-12.59,2.23-19l-.64-55.78a22.08,22.08,0,0,0,11.27-17.66l23.43-1.36-3.75,81.75c-.25,5.63.3,12.63,5.48,14.85,4,1.74,8.92-.85,11.22-4.61s2.67-8.36,2.95-12.77a1031.11,1031.11,0,0,0,1.09-112.71,51.81,51.81,0,0,0-1.45-11.73c-1.29-4.62-3.81-8.78-5.84-13.13-14.3-30.57-4.42-69.87-23.32-97.84l-47.46-47.47,4.8-5.62c.14-2.84-2.64-4.8-4.85-6.59-4.16-3.34-7.21-7.84-10.82-11.78-8.56-9.34-17.7-16.13-28.56-7.53C317.42,122.81,305.85,128,292.39,125.1Z" transform="translate(0 -17.67)"></path><rect width="63.45" height="19.83" x="96.94" y="382.06" fill="#8c6239" rx="9.91" class="color8c6239 svgShape"></rect><rect width="63.45" height="19.83" x="96.94" y="382.06" fill="url(#a)" rx="9.91"></rect><rect width="63.45" height="19.83" x="389.35" y="324.96" fill="#8c6239" rx="9.91" class="color8c6239 svgShape"></rect><rect width="63.45" height="19.83" x="389.35" y="372.29" fill="#8c6239" rx="9.91" class="color8c6239 svgShape"></rect><rect width="63.45" height="19.83" x="389.35" y="324.96" fill="url(#e)" rx="9.91"></rect><rect width="63.45" height="19.83" x="389.35" y="372.29" fill="url(#f)" rx="9.91"></rect><path fill="#68e1fd" d="M155.9,405.8a5.38,5.38,0,0,0-.77,3.72c.43,1.78,2.21,2.84,3.83,3.7l30.73,16.35a6.16,6.16,0,0,0,3.85,1c2.86-.54,3.32-4.66,2-7.22-2.67-5-9.3-7.6-10.14-13.16-.23-1.48-1.57-10.4-1.75-11.89-.76-6.27-6.75-4.08-6.75-4.08-1.92-.09-6-3.61-8-3.13C163.39,392.45,158,401.75,155.9,405.8Z" transform="translate(0 -17.67)" class="color68e1fd svgShape"></path><rect width="63.45" height="19.83" x="96.94" y="334.74" fill="#8c6239" rx="9.91" class="color8c6239 svgShape"></rect><rect width="63.45" height="19.83" x="96.94" y="334.74" fill="url(#g)" rx="9.91"></rect><rect width="18.97" height="169.73" x="96.94" y="288.01" fill="#8c6239" rx="9.49" class="color8c6239 svgShape"></rect><rect width="18.97" height="169.73" x="141.42" y="288.01" fill="#8c6239" rx="9.49" class="color8c6239 svgShape"></rect><path fill="#8c6239" d="M152.66,294.34c2.67.23,5.54.55,7.56,2.32,2.33,2,2.88,5.39,3,8.47.1,2.2-.05,4.68-1.7,6.15a7.75,7.75,0,0,1-4.16,1.53c-12.24,1.95-75.92,10.57-66.47-14.64C97,281.89,140.12,293.23,152.66,294.34Z" transform="translate(0 -17.67)" class="color8c6239 svgShape"></path><path fill="url(#h)" d="M152.66,294.34c2.67.23,5.54.55,7.56,2.32,2.33,2,2.88,5.39,3,8.47.1,2.2-.05,4.68-1.7,6.15a7.75,7.75,0,0,1-4.16,1.53c-12.24,1.95-75.92,10.57-66.47-14.64C97,281.89,140.12,293.23,152.66,294.34Z" transform="translate(0 -17.67)"></path><path fill="#68e1fd" d="M181.49,397.68c14-18,25.38-32.66,37.82-51.73,5.49-8.42,10.91-17.1,13.6-26.79s2.37-20.67-3.11-29.1c-4.71-7.27-12.54-11.8-20.08-16.06L178,256.08c-9.72,1.3-19.11,3.1-26.33,9.73-3.05,2.8-5.84,6.22-6.5,10.31-1.6,9.83,9,16.83,18,21.06l34.74,16.29a7.17,7.17,0,0,1,3.2,2.32c1.4,2.2.05,5.07-1.33,7.29-7.68,12.4-16.33,24.26-22.78,37.35s-9.89,18.43-7.93,32.89C172.1,394,178.49,397,181.49,397.68Z" transform="translate(0 -17.67)" class="color68e1fd svgShape"></path><path fill="url(#i)" d="M181.49,397.68c14-18,25.38-32.66,37.82-51.73,5.49-8.42,10.91-17.1,13.6-26.79s2.37-20.67-3.11-29.1c-4.71-7.27-12.54-11.8-20.08-16.06L178,256.08c-9.72,1.3-19.11,3.1-26.33,9.73-3.05,2.8-5.84,6.22-6.5,10.31-1.6,9.83,9,16.83,18,21.06l34.74,16.29a7.17,7.17,0,0,1,3.2,2.32c1.4,2.2.05,5.07-1.33,7.29-7.68,12.4-16.33,24.26-22.78,37.35s-9.89,18.43-7.93,32.89C172.1,394,178.49,397,181.49,397.68Z" transform="translate(0 -17.67)"></path><path fill="#68e1fd" d="M158.66,322.5c20.21,8.46,39.1,22.2,49,41.77,7.13,14.17,9.07,30.29,13.5,45.52,1.21,4.14,2.68,8.36,5.59,11.54s7.61,5.1,11.64,3.58c5.66-2.12,7.23-9.23,8-15.22,2.13-17.26,4.25-34.72,2.18-52s-8.77-34.58-21.76-46.14c-4.82-4.29-10.37-7.68-15.87-11L177.25,280c-16.25-9.92-52.18-27-63.49-.4C103.35,304.13,143.32,316.09,158.66,322.5Z" transform="translate(0 -17.67)" class="color68e1fd svgShape"></path><path fill="url(#j)" d="M158.66,322.5c20.21,8.46,39.1,22.2,49,41.77,7.13,14.17,9.07,30.29,13.5,45.52,1.21,4.14,2.68,8.36,5.59,11.54s7.61,5.1,11.64,3.58c5.66-2.12,7.23-9.23,8-15.22,2.13-17.26,4.25-34.72,2.18-52s-8.77-34.58-21.76-46.14c-4.82-4.29-10.37-7.68-15.87-11L177.25,280c-16.25-9.92-52.18-27-63.49-.4C103.35,304.13,143.32,316.09,158.66,322.5Z" transform="translate(0 -17.67)"></path><path fill="url(#b)" d="M218.56,147.2c4.51-4.42,6.57-22.35,9.59-18.75.83,1.92.83,3-.48,13.39,1.62-3.66,4.29-7.32,4.49-12.63a1.35,1.35,0,0,1,1.36-1.24c.69.05,1,.88,1.12,1.56.82,4.54.28,8.23-2,13.93,3.77-1.89,3.65-8,4.89-11.94a1.23,1.23,0,0,1,2.38.28c.72,7.18-1.64,9.66-2.91,14.26,1-2.67,2.86-4.74,4.65-6.93a1,1,0,0,1,1.71.69c-.52,5-2.94,9.89-4.84,14.46A23.6,23.6,0,0,1,234,161.5c-10.26,10.92-20.48,1.82-20.79-9-.08-2.51,1-12.63,2.94-13.83C218.61,137.15,218.63,145.44,218.56,147.2Z" transform="translate(0 -17.67)"></path><path fill="#68e1fd" d="M215.84,161.7c.48-.39,12.42,4.85,12.53,5.34,3.22,14.11-6.88,24.56-15.65,36.07-2.72,3.56-6.1,7.34-10.57,7.51-3.63.13-30.56-1.69-32.83-4.53-3.54-4.41,12.39-17.05,13.28-22.72,1.35-8.64,8.52-.12,14.46-3.79C205.84,174.15,208.49,167.74,215.84,161.7Z" transform="translate(0 -17.67)" class="color68e1fd svgShape"></path><path fill="url(#k)" d="M216.24,161.7c.48-.39,12.42,4.85,12.53,5.34,3.22,14.11-6.87,24.56-15.65,36.07-2.72,3.56-6.1,7.34-10.57,7.51-3.63.13-33.87-1.69-36.14-4.53-3.54-4.41,2.42-26.83,3.31-32.5,1.36-8.64,21.8,9.66,27.74,6C206.24,174.15,208.89,167.74,216.24,161.7Z" transform="translate(0 -17.67)"></path><path fill="url(#l)" d="M271.65,180.53a5.72,5.72,0,0,1-1.23,5c7-2.51,11.17-4.63,18.17-7.14a1,1,0,0,1,1.16,1.61c-1.25,1.63-7.58,4.9-8.87,5.87.4-.16,8.53-3.25,9.58-3.52a.94.94,0,0,1,1,1.5c-.75,1.2-3.5,2.34-8.87,5.68.34-.14,5.79-1.84,8.73-3,2-.81,2.09,1.25.19,2.44-2.39,1.51-5.86,3.12-6.2,3.71s5.82-2.15,6.29-1.5c1.29,1.78-7.36,6.29-9.9,7.79-4.56,2.69-10.21,5.43-15.48,6a9.92,9.92,0,0,1-2.31,0c-1.42-.2-6.18.27-7.41-.48-2.34-1.41-3.23-4.91-3.66-8s2.84-4.1,5.1-5.18C263.3,188.77,266.15,182.83,271.65,180.53Z" transform="translate(0 -17.67)"></path><path fill="#8c6239" d="M478,231a12.09,12.09,0,0,1-12.08,12.08H43.47a12.08,12.08,0,0,1-10.56-18,12.27,12.27,0,0,1,2-2.67A12,12,0,0,1,43.47,219h422.4A12.07,12.07,0,0,1,478,231Z" transform="translate(0 -17.67)" class="color8c6239 svgShape"></path><path fill="url(#m)" d="M476.43,225.17a12.27,12.27,0,0,1-2,2.67,12,12,0,0,1-8.54,3.54H43.47a12.08,12.08,0,0,1-10.56-6.21,12.27,12.27,0,0,1,2-2.67A12,12,0,0,1,43.47,219h422.4A12.08,12.08,0,0,1,476.43,225.17Z" transform="translate(0 -17.67)"></path><path fill="#68e1fd" d="M138.83,115.52c-24.94,43-37,100.11-30.82,149.41.69,5.5,1.91,11.56,6.38,14.83,3.12,2.28,7.2,2.7,11.06,2.87a136.3,136.3,0,0,0,20.7-.65c9.75-1.06,20.27-3.71,26.15-11.56,3.25-4.33,4.66-9.73,6-15,2.86-11.17-2.68-48.39,2.38-84.45C183,154.4,187,146,166,117c-4-5.59-2.12-7.5-8.94-8.59s-14.48,1.34-18.24,7.14" transform="translate(0 -17.67)" class="color68e1fd svgShape"></path><path fill="url(#n)" d="M180.69,171c-5.06,36.06.48,73.28-2.38,84.45-1.35,5.24-2.76,10.64-6,15-4.5,6-11.72,9-19.24,10.5,0-10.15-.45-27.1-2.16-54.23-2.32-36.77,7.07-85.84,13.3-113.37a47.87,47.87,0,0,0,3.4,5.54C186.52,144.11,183,154.4,180.69,171Z" transform="translate(0 -17.67)"></path><path fill="#68e1fd" d="M174.09,188.76c6,11.74,14,24.33,26.94,27.1,4.59,1,9.35.58,14,.09q19-2,37.72-5.78c3.34-.67,7.34-2,8-5.4.39-2.19-2-10.34-3.49-12-6-6.4-14.39-2.42-23.17-2.28s-17.46,2.09-26.24,2.2a6,6,0,0,1-3.4-.68,6.11,6.11,0,0,1-1.94-2.84C197.68,178,183.42,144.94,178.3,134c-6.4-13.74-26.22-3.72-23.79,10.71S167.45,175.79,174.09,188.76Z" transform="translate(0 -17.67)" class="color68e1fd svgShape"></path><path fill="url(#o)" d="M174.09,188.76c6,11.74,14,24.33,26.94,27.1,4.59,1,9.35.58,14,.09q19-2,37.72-5.78c3.34-.67,7.34-2,8-5.4.39-2.19-2-10.34-3.49-12-6-6.4-14.39-2.42-23.17-2.28s-17.46,2.09-26.24,2.2a6,6,0,0,1-3.4-.68,6.11,6.11,0,0,1-1.94-2.84C197.68,178,183,142.8,178.3,134c-7.05-13.41-26.22-3.72-23.79,10.71S167.45,175.79,174.09,188.76Z" transform="translate(0 -17.67)"></path><path fill="url(#p)" d="M141.58,98.79c.69-8.12,3.46-15.91,6.66-23.41a61.06,61.06,0,0,1,7.65-13.9,36.75,36.75,0,0,1,27.76-13.92,14.13,14.13,0,0,1,7.1,1.34c2.91,1.6,4.65,4.72,5.81,7.83C199,63.34,195.9,102.1,183,102.8c-17.4.94-18.48,8.12-17.7,11.66,1.33,6-12.8,7.82-18.32,5C140.54,116.06,141.07,104.76,141.58,98.79Z" transform="translate(0 -17.67)"></path><path fill="#25233a" d="M197.34,53C194,55.2,181.73,51,178,52.42c-6.33,2.36-9.47,9.58-10.23,16.29-1.86-2.63-4.61-5.59-7.71-4.69-2.41.71-3.53,3.45-4.11,5.9a14.19,14.19,0,0,0-.3,6.69,6.12,6.12,0,0,0,4.42,4.63c-4.21-.14-7.16,4-9.15,7.71s-4.55,8-8.75,8.39c-2.9.28-20.42-32.51-3.94-42.22-3.69-2.12-4-7.57,2.44-13.23,3.2-2.8,10.71-5.28,14.86-6.21C207.53,24,201.54,50.16,197.34,53Z" transform="translate(0 -17.67)" class="color25233a svgShape"></path><path fill="url(#q)" d="M290.35,113.59c-3.17-2.11-6.37-4.56-10.17-5-1.18,3,4.65,5,4.11,8.15a12.54,12.54,0,0,0-5.71-3.23c.06,3.35,1.89,6.38,3.67,9.23,2.31,3.7,4.68,7.46,8.06,10.21a34.31,34.31,0,0,0,9.46,5c6.42,2.47,13.93,3.68,17.78-3.3,2.46-4.46,2.84-10.31-.19-14.51-1.9-2.61-9.79-9.25-13-5.89-2.39,2.53,1.92,5.12-2.81,5.41C298.61,119.9,292.74,115.19,290.35,113.59Z" transform="translate(0 -17.67)"></path><polygon fill="#ffffff" points="94.57 200.76 56.31 200.76 56.31 158.22 56.31 145.15 94.57 145.15 94.57 200.76" class="colorfff svgShape"></polygon><polygon fill="url(#r)" points="94.57 200.76 56.31 200.76 56.31 158.22 56.31 145.15 94.57 145.15 94.57 200.76"></polygon><path fill="#ffffff" d="M56.6,212.52c-.55-.39-12.5-8.89-14.09-22.91h0c-.64-5.62.61-10,3.7-13s7.18-3.74,10.07-3.87h0Zm-8.13-23.59c.72,6.4,4.82,12,8.06,15.43l-.2-25.59a9.4,9.4,0,0,0-6,2.2c-1.67,1.62-2.31,4.3-1.89,8Z" transform="translate(0 -17.67)" class="colorfff svgShape"></path><path fill="url(#s)" d="M56.6,212.52c-.55-.39-12.5-8.89-14.09-22.91h0c-.64-5.62.61-10,3.7-13s7.18-3.74,10.07-3.87h0Zm-8.13-23.59c.72,6.4,4.82,12,8.06,15.43l-.2-25.59a9.4,9.4,0,0,0-6,2.2c-1.67,1.62-2.31,4.3-1.89,8Z" transform="translate(0 -17.67)"></path><path fill="#ffd645" d="M89.34,175.64q1.09,17.4,1.2,34.84a4.27,4.27,0,0,1-.37,2.16c-.69,1.2-2.31,1.42-3.69,1.51l-21,1.31a5,5,0,0,1-1.81-.11c-1.77-.57-2.29-2.78-2.52-4.62-1.06-8.55-4.86-25.18,3.2-31.46,2.84-2.21,8-3.88,11.31-5.07,4.65-1.66,2.94.53,6.37,1.31C84.53,176.07,86.94,173.82,89.34,175.64Z" transform="translate(0 -17.67)" class="colorffd645 svgShape"></path><path fill="#ffffff" d="M56.24,167.63a8.52,8.52,0,0,0,7.86,1c2.05-.81,3.65-2.41,5.46-3.65s4.17-2.11,6.18-1.24c1.41.61,2.34,1.94,3.48,3a9.86,9.86,0,0,0,12,.67,5.82,5.82,0,0,1,2.84-1.52,6.61,6.61,0,0,1,1.85.33,5.46,5.46,0,0,0,4.92-1.26,4.19,4.19,0,0,0,.86-4.85,5.84,5.84,0,0,0-1.61-1.75,15,15,0,0,0-11.45-3,7.35,7.35,0,0,1-3.19.15c-4.66-1.33-3.48-7.19-9.83-6.37-4.69.61-7.71,2.58-12.64,2.49C54.6,151.5,47.62,161.57,56.24,167.63Z" transform="translate(0 -17.67)" class="colorfff svgShape"></path><path fill="url(#t)" d="M56.24,167.63a8.52,8.52,0,0,0,7.86,1c2.05-.81,3.65-2.41,5.46-3.65s4.17-2.11,6.18-1.24c1.41.61,2.34,1.94,3.48,3a9.86,9.86,0,0,0,12,.67,5.82,5.82,0,0,1,2.84-1.52,6.61,6.61,0,0,1,1.85.33,5.46,5.46,0,0,0,4.92-1.26,4.19,4.19,0,0,0,.86-4.85,5.84,5.84,0,0,0-1.61-1.75,15,15,0,0,0-11.45-3,7.35,7.35,0,0,1-3.19.15c-4.66-1.33-3.48-7.19-9.83-6.37-4.69.61-7.71,2.58-12.64,2.49C54.6,151.5,47.62,161.57,56.24,167.63Z" transform="translate(0 -17.67)"></path><path fill="#68e1fd" d="M292 390c-3.23 11.2-17.75 12-23 16.61-1.51 1.32-3.1 2.93-3.13 4.94-.06 3.71 4.71 5.18 8.41 5.53 6.8.65 30.32-.15 30.36-1.24.26-8.48 2.82-17.82.06-25.84C304.69 390 292.11 389.59 292 390zM356.57 393.56c2.26 11.43-10.27 18.81-12.84 25.3-.73 1.88-1.41 4-.52 5.84 1.65 3.32 6.57 2.44 10 1.06 6.35-2.55 26.89-14 26.41-15-3.65-7.65-5.66-17.13-11.78-23C367.85 387.74 356.49 393.18 356.57 393.56z" transform="translate(0 -17.67)" class="color68e1fd svgShape"></path><path fill="url(#u)" d="M292,390c-3.23,11.2-17.75,12-23,16.61-1.51,1.32-3.1,2.93-3.13,4.94-.06,3.71,4.71,5.18,8.41,5.53,6.8.65,30.32-.15,30.36-1.24.26-8.48,2.82-17.82.06-25.84C304.69,390,292.11,389.59,292,390Z" transform="translate(0 -17.67)"></path><path fill="url(#v)" d="M356.57,393.56c2.26,11.43-10.27,18.81-12.84,25.3-.73,1.88-1.41,4-.52,5.84,1.65,3.32,6.57,2.44,10,1.06,6.35-2.55,26.89-14,26.41-15-3.65-7.65-5.66-17.13-11.78-23C367.85,387.74,356.49,393.18,356.57,393.56Z" transform="translate(0 -17.67)"></path><path fill="#68e1fd" d="M231.4,437.65a5.71,5.71,0,0,0,4.81,6.3,73.67,73.67,0,0,0,22.07,3.78c1.5,0,3.14-.05,4.28-1,2.37-2,.77-5.87-1-8.47-3.83-5.77-9.74-8.69-13.57-14.45-.76-1.15-2-3.81-3.28-4.22-8.5-2.67-13.29,2.31-14.36,4.6C228.66,427.86,231.17,433.93,231.4,437.65Z" transform="translate(0 -17.67)" class="color68e1fd svgShape"></path><path fill="url(#w)" d="M303.13,49.21s1.4,20.55,2.81,27,4.9,20.83,13.57,20,15.9-3.47,18.72,4.69,4.6,12.48,12.48,2.35,5.48-17.75,5.48-17.75S348.18,25.28,303.13,49.21Z" transform="translate(0 -17.67)"></path><path fill="#68e1fd" d="M330.41,111.86s11.57-7.18,18.89-10.75,7.24-8.82,7.24-8.82,3.84,1.12,4,1.69,30.05,6.33,45.72,46,41.48,104.41,41.48,104.41-28.62,17.77-28.67,17.7-52.78-1.81-52.78-1.81l-35.9-82.36S322.6,122.79,330.41,111.86Z" transform="translate(0 -17.67)" class="color68e1fd svgShape"></path><path fill="url(#c)" d="M330.41,111.86s11.57-7.18,18.89-10.75,7.24-8.82,7.24-8.82,3.84,1.12,4,1.69,30.05,6.33,45.72,46C418.16,170,438.77,210.5,448,228.33a17.15,17.15,0,0,1-2.75,19.72,20.29,20.29,0,0,1-4,3.4,134.15,134.15,0,0,1-22.17,10.6c0-.07-52.78-1.81-52.78-1.81l-35.9-82.36S322.6,122.79,330.41,111.86Z" transform="translate(0 -17.67)"></path><path fill="url(#x)" d="M352.07,146.46s6.43,35.74,18.82,56.76,23.61,54.3,23.61,54.3l-28.19,2.72L334.9,186.15Z" transform="translate(0 -17.67)"></path><path fill="#68e1fd" d="M138.23,110.59s1.74-5.07,3.07-4.51,6.5,7.79,26.77,7.79l-4.6,10.53s-13-.84-19.14-5.08C138.83,115.52,138.23,110.59,138.23,110.59Z" transform="translate(0 -17.67)" class="color68e1fd svgShape"></path><path fill="url(#y)" d="M138.23,110.59s1.74-5.07,3.07-4.51,6.5,7.79,26.77,7.79l-4.6,10.53s-13-.84-19.14-5.08C138.83,115.52,138.23,110.59,138.23,110.59Z" transform="translate(0 -17.67)"></path><path fill="#68e1fd" d="M441.26,251.45s5.14,14.46,5.11,25-6.95,24.4-40.09,36.79l-43.11,19.89c-4.89,3.76,1.86,30.28,2.46,36.42L372,393.32s-12.76,3.24-13.89,2.49c-.6-.4-17.86-26.75-23.65-50.4-7.53-30.78,15.5-50.06,34.58-66.88l25.45-21Z" transform="translate(0 -17.67)" class="color68e1fd svgShape"></path><path fill="url(#z)" d="M441.26,251.45s5.14,14.46,5.11,25-6.95,24.4-40.09,36.79l-43.11,19.89c-4.89,3.76,1.86,30.28,2.46,36.42L372,393.32s-12.76,3.24-13.89,2.49c-.6-.4-17.86-26.75-23.65-50.4-7.53-30.78,15.5-50.06,34.58-66.88l26.15-20.12Z" transform="translate(0 -17.67)"></path><rect width="18.97" height="169.73" x="389.35" y="278.24" fill="#8c6239" rx="9.49" class="color8c6239 svgShape"></rect><rect width="18.97" height="169.73" x="433.82" y="278.24" fill="#8c6239" rx="9.49" class="color8c6239 svgShape"></rect><path fill="#8c6239" d="M446.67,294.58c4,.12,8.68.57,10.95,3.91,2.48,3.63.48,8.93-3.07,11.52s-8.15,3.18-12.52,3.69c-9.24,1.08-65.3,9-59.81-6.88C389,287.38,433.13,294.15,446.67,294.58Z" transform="translate(0 -17.67)" class="color8c6239 svgShape"></path><path fill="url(#A)" d="M446.67,294.58c4,.12,8.68.57,10.95,3.91,2.48,3.63.48,8.93-3.07,11.52s-8.15,3.18-12.52,3.69c-9.24,1.08-65.3,9-59.81-6.88C389,287.38,433.13,294.15,446.67,294.58Z" transform="translate(0 -17.67)"></path><path fill="#68e1fd" d="M321.31,273.34c-5.43,3.13-10.88,6.38-15.34,10.78-12.54,12.4-15.14,31.4-17.06,48.93-2.08,19.09-4.1,38.86,1.84,57.12,1.21,3.72,3.77,8,7.67,7.65,3.08-.29,5-3.39,6.27-6.22,8.41-19,4.22-60.21,22.25-70.5,27-15.41,47.14.09,106.78-22.36,13.81-5.2,17-31.89,7.54-47.29,0,0-17.35,2.59-36.91,5C373.36,260.23,345.85,259.2,321.31,273.34Z" transform="translate(0 -17.67)" class="color68e1fd svgShape"></path><path fill="url(#B)" d="M433.72,298.74c-59.64,22.45-79.77,6.95-106.78,22.36-18,10.29-13.84,51.52-22.25,70.5-1.25,2.83-3.19,5.93-6.27,6.22-3.9.36-6.46-3.93-7.67-7.65-5.94-18.26-3.92-38-1.84-57.12,1.92-17.53,4.52-36.53,17.06-48.93,4.46-4.4,9.91-7.65,15.34-10.78,21.91-12.62,46.18-13.16,73.19-15.82,3.24-.32,6.53-.67,9.85-1.08,19.56-2.4,36.91-5,36.91-5C450.75,266.85,447.53,293.54,433.72,298.74Z" transform="translate(0 -17.67)"></path><path fill="#68e1fd" d="M326.23,115.29c-4,4.33-6.28,9.87-8.35,15.36a271.48,271.48,0,0,0-11,37.06c-1,4.54-7.68,14.54-10.2,18.44-22.54,34.89-2,32.14-.35,32.24,10,.61,19.64-5,26.33-12.46s11-16.8,15.13-26l7.86-17.25c4.24-9.32,8.58-19,8.32-29.27C353.6,120.15,339,101.32,326.23,115.29Z" transform="translate(0 -17.67)" class="color68e1fd svgShape"></path><path fill="url(#C)" d="M326.23,115.29c-4,4.33-6.28,9.87-8.35,15.36a271.48,271.48,0,0,0-11,37.06c-1,4.54-7.68,14.54-10.2,18.44-22.54,34.89-2,32.14-.35,32.24,10,.61,19.64-5,26.33-12.46s11-16.8,15.13-26l7.86-17.25c4.24-9.32,8.58-19,8.32-29.27C353.6,120.15,339,101.32,326.23,115.29Z" transform="translate(0 -17.67)"></path><path fill="url(#D)" d="M394.5,257.52c-.19,4.08-1.32,15.57-7.84,18.34-8,3.38-67.2,10.42-81.14,40.75s-7.1,81.21-7.1,81.21c-3.9.36-6.46-3.93-7.67-7.65-5.94-18.26-3.92-38-1.84-57.12,1.92-17.53,4.52-36.53,17.06-48.93,4.46-4.4,9.91-7.65,15.34-10.78C343.22,260.72,367.49,260.18,394.5,257.52Z" transform="translate(0 -17.67)"></path><path fill="#25233a" d="M316.08,21.33s-25.34-.56-28.72-3.66l3.38,6.48-7,1.69,9.17,9.29-6.72,3.1s5.72,7.39,12.9,9.32,22.7-.31,27.89,5,5.89,18,5.89,18,3-10.28,6.19-5.92-1.26,14.79-3.23,13.66c0,0,10.7,6.62,12.1,10.56s8.65-4.65,8.65-4.65,1.21-9.43,1.49-16.33,7.3-30.26-5.91-38.71C337.48,19.86,326.82,20.29,316.08,21.33Z" transform="translate(0 -17.67)" class="color25233a svgShape"></path><path fill="#ffd645" d="M62.06,181a1.45,1.45,0,0,0,.07,1.39c.43.46,1.2.21,1.76-.07,3.27-1.63,6.61-3.37,10.25-3.69,2.62-.24,5.24.27,7.86.38,1.2.05,2.4,0,3.6,0a7.33,7.33,0,0,0,2.46-.39,2.33,2.33,0,0,0,.43-4.31,7.24,7.24,0,0,0-2.81-1c-1.42-.27-2.84-.5-4.27-.69a21.25,21.25,0,0,0-4.21-.23c-3.66.24-7.11,2.1-10.78,2.12-1.09,0-2.49,0-2.88,1-.24.63.16,1,.21,1.57s.07.49-.3,1.12A15,15,0,0,0,62.06,181Z" transform="translate(0 -17.67)" class="colorffd645 svgShape"></path><path fill="url(#E)" d="M62.06,181a1.45,1.45,0,0,0,.07,1.39c.43.46,1.2.21,1.76-.07,3.27-1.63,6.61-3.37,10.25-3.69,2.62-.24,5.24.27,7.86.38,1.2.05,2.4,0,3.6,0a7.33,7.33,0,0,0,2.46-.39,2.33,2.33,0,0,0,.43-4.31,7.24,7.24,0,0,0-2.81-1c-1.42-.27-2.84-.5-4.27-.69a21.25,21.25,0,0,0-4.21-.23c-3.66.24-7.11,2.1-10.78,2.12-1.09,0-2.49,0-2.88,1-.24.63.16,1,.21,1.57s.07.49-.3,1.12A15,15,0,0,0,62.06,181Z" transform="translate(0 -17.67)"></path><path fill="#68e1fd" d="M360.56,94l-4-4.81s-10.78,13.25-18.86,14l-1.5,6a25.16,25.16,0,0,0,14.55-5.91C357.94,97.35,360.56,94,360.56,94Z" transform="translate(0 -17.67)" class="color68e1fd svgShape"></path><path fill="url(#F)" d="M360.56,94l-4-4.81s-10.78,13.25-18.86,14l-1.5,6a25.16,25.16,0,0,0,14.55-5.91C357.94,97.35,360.56,94,360.56,94Z" transform="translate(0 -17.67)"></path><path fill="url(#G)" d="M335.76,71a12.94,12.94,0,0,0,.39-1.85c.12-.51.44-1.06,1-1.11a1,1,0,0,1,.95.77,2.77,2.77,0,0,1,0,1.31A6.13,6.13,0,0,1,336,74.22a1,1,0,0,1-.79.23c-.38-.1-.56-.51-.69-.87-.19-.52-.45-1.07,0-1.47S335.49,71.7,335.76,71Z" transform="translate(0 -17.67)"></path><path fill="url(#H)" d="M162.63,72.41c-.19-1.08.45-2.28-.11-3.22a1.76,1.76,0,0,0-2-.66A2.85,2.85,0,0,0,158.91,70c-1,1.84-.57,4.18.38,6.07a3.26,3.26,0,0,0,1.81,1.85,2.47,2.47,0,0,0,2.47-.91,6.44,6.44,0,0,0,1.13-2.53c.21-.8-.44-.54-.91-.69A1.78,1.78,0,0,1,162.63,72.41Z" transform="translate(0 -17.67)"></path></svg></g></svg>